<svg xmlns="http://www.w3.org/2000/svg" xmlns:xlink="http://www.w3.org/1999/xlink" width="181.052" height="167.132" viewBox="0 0 181.052 167.132">
  <defs>
    <clipPath id="clip-path">
      <rect id="Rectangle_2389" data-name="Rectangle 2389" width="20.03" height="31.261" fill="none"/>
    </clipPath>
    <clipPath id="clip-path-2">
      <rect id="Rectangle_2390" data-name="Rectangle 2390" width="30.114" height="31.261" fill="none"/>
    </clipPath>
    <clipPath id="clip-path-3">
      <rect id="Rectangle_2391" data-name="Rectangle 2391" width="24.779" height="31.261" fill="none"/>
    </clipPath>
    <clipPath id="clip-path-4">
      <rect id="Rectangle_2392" data-name="Rectangle 2392" width="19.658" height="32.833" fill="none"/>
    </clipPath>
    <clipPath id="clip-path-5">
      <rect id="Rectangle_2393" data-name="Rectangle 2393" width="17.278" height="31.261" fill="none"/>
    </clipPath>
    <clipPath id="clip-path-6">
      <rect id="Rectangle_2394" data-name="Rectangle 2394" width="30.113" height="31.261" fill="none"/>
    </clipPath>
    <clipPath id="clip-path-8">
      <rect id="Rectangle_2397" data-name="Rectangle 2397" width="79.781" height="79.528" fill="none"/>
    </clipPath>
    <clipPath id="clip-path-9">
      <rect id="Rectangle_2398" data-name="Rectangle 2398" width="26.445" height="61.643" fill="none"/>
    </clipPath>
    <clipPath id="clip-path-10">
      <rect id="Rectangle_2399" data-name="Rectangle 2399" width="9.876" height="9.849" fill="none"/>
    </clipPath>
    <clipPath id="clip-path-11">
      <rect id="Rectangle_2400" data-name="Rectangle 2400" width="19.589" height="25.66" fill="none"/>
    </clipPath>
  </defs>
  <g id="Group_1428" data-name="Group 1428" transform="translate(-242.685 -154.78)" style="isolation: isolate">
    <g id="Group_1395" data-name="Group 1395" transform="translate(242.685 262.284)" style="isolation: isolate">
      <g id="Group_1394" data-name="Group 1394" transform="translate(0 0)">
        <g id="Group_1393" data-name="Group 1393" clip-path="url(#clip-path)">
          <path id="Path_1781" data-name="Path 1781" d="M242.685,341.6h6.3q5.18,0,7.377.924a7.563,7.563,0,0,1,3.534,3.071,9.406,9.406,0,0,1,1.337,5.079,8.658,8.658,0,0,1-1.477,5.154,8.97,8.97,0,0,1-4.452,3.135l7.405,13.9h-6.5l-7.03-13.24h-.544v13.24h-5.95Zm5.95,12.22H250.5a7.285,7.285,0,0,0,3.909-.746,2.8,2.8,0,0,0,1.07-2.473,3.031,3.031,0,0,0-.529-1.78,2.953,2.953,0,0,0-1.42-1.088,10.763,10.763,0,0,0-3.263-.33h-1.631Z" transform="translate(-242.685 -341.598)" fill="#005490"/>
        </g>
      </g>
    </g>
    <g id="Group_1398" data-name="Group 1398" transform="translate(265.009 262.284)" style="isolation: isolate">
      <g id="Group_1397" data-name="Group 1397" transform="translate(0 0)">
        <g id="Group_1396" data-name="Group 1396" clip-path="url(#clip-path-2)">
          <path id="Path_1782" data-name="Path 1782" d="M293.535,341.6h6.036l12.022,31.261h-6.184l-2.446-6.44H290.207l-2.543,6.44H281.48Zm3.055,8.288L292.4,360.618h8.363Z" transform="translate(-281.48 -341.598)" fill="#005490"/>
        </g>
      </g>
    </g>
    <g id="Group_1401" data-name="Group 1401" transform="translate(299.746 262.284)" style="isolation: isolate">
      <g id="Group_1400" data-name="Group 1400" transform="translate(0 0)">
        <g id="Group_1399" data-name="Group 1399" clip-path="url(#clip-path-3)">
          <path id="Path_1783" data-name="Path 1783" d="M341.844,341.6h7.049q6.816,0,10.128,1.69a13.19,13.19,0,0,1,5.457,5.493,19.264,19.264,0,0,1,.945,15.524,13.8,13.8,0,0,1-3.313,5.026,11.7,11.7,0,0,1-4.575,2.762,32.563,32.563,0,0,1-8.536.765h-7.156Zm5.908,5.738v19.721h2.763a13.839,13.839,0,0,0,5.918-.936,7.093,7.093,0,0,0,3.007-3.148,11.556,11.556,0,0,0,1.169-5.447q0-4.978-2.785-7.722-2.508-2.467-8.053-2.468Z" transform="translate(-341.844 -341.598)" fill="#005490"/>
        </g>
      </g>
    </g>
    <g id="Group_1404" data-name="Group 1404" transform="translate(327.5 261.497)" style="isolation: isolate">
      <g id="Group_1403" data-name="Group 1403">
        <g id="Group_1402" data-name="Group 1402" clip-path="url(#clip-path-4)">
          <path id="Path_1784" data-name="Path 1784" d="M409.18,345.267l-4.407,3.889q-2.32-3.23-4.726-3.23a2.879,2.879,0,0,0-1.916.626,1.829,1.829,0,0,0-.745,1.413,2.42,2.42,0,0,0,.533,1.488,40.337,40.337,0,0,0,4.364,4.017q3.405,2.848,4.13,3.591a12.472,12.472,0,0,1,2.565,3.5,8.735,8.735,0,0,1,.756,3.645,8.356,8.356,0,0,1-2.66,6.354,9.694,9.694,0,0,1-6.935,2.508,10.32,10.32,0,0,1-5.818-1.637,12.934,12.934,0,0,1-4.244-5.143l5-3.017q2.256,4.144,5.193,4.144a3.828,3.828,0,0,0,2.576-.892,2.656,2.656,0,0,0,1.043-2.062,3.559,3.559,0,0,0-.787-2.125,22.78,22.78,0,0,0-3.471-3.252q-5.109-4.165-6.6-6.428a8.163,8.163,0,0,1-1.49-4.516,7.383,7.383,0,0,1,2.478-5.578,8.6,8.6,0,0,1,6.117-2.327,9.652,9.652,0,0,1,4.457,1.084,16.24,16.24,0,0,1,4.586,3.953" transform="translate(-390.075 -340.232)" fill="#005490"/>
        </g>
      </g>
    </g>
    <g id="Group_1407" data-name="Group 1407" transform="translate(349.75 262.284)" style="isolation: isolate">
      <g id="Group_1406" data-name="Group 1406" transform="translate(0 0)">
        <g id="Group_1405" data-name="Group 1405" clip-path="url(#clip-path-5)">
          <path id="Path_1785" data-name="Path 1785" d="M428.742,341.6h17.277v5.865h-5.7v25.4h-6.035v-25.4h-5.547Z" transform="translate(-428.741 -341.598)" fill="#005490"/>
        </g>
      </g>
    </g>
    <g id="Group_1410" data-name="Group 1410" transform="translate(368.59 262.284)" style="isolation: isolate">
      <g id="Group_1409" data-name="Group 1409" transform="translate(0 0)">
        <g id="Group_1408" data-name="Group 1408" clip-path="url(#clip-path-6)">
          <path id="Path_1786" data-name="Path 1786" d="M473.536,341.6h6.035l12.023,31.261H485.41l-2.446-6.44H470.208l-2.544,6.44h-6.184Zm3.055,8.288L472.4,360.618h8.363Z" transform="translate(-461.481 -341.598)" fill="#005490"/>
        </g>
      </g>
    </g>
    <g id="Group_1413" data-name="Group 1413" transform="translate(403.708 262.284)" style="isolation: isolate">
      <g id="Group_1412" data-name="Group 1412" transform="translate(0 0)">
        <g id="Group_1411" data-name="Group 1411" clip-path="url(#clip-path)">
          <path id="Path_1787" data-name="Path 1787" d="M522.507,341.6h6.3q5.179,0,7.377.924a7.56,7.56,0,0,1,3.534,3.071,9.4,9.4,0,0,1,1.337,5.079,8.654,8.654,0,0,1-1.477,5.154,8.97,8.97,0,0,1-4.452,3.135l7.406,13.9h-6.505L529,359.619h-.544v13.24h-5.951Zm5.951,12.22h1.864a7.283,7.283,0,0,0,3.908-.746,2.8,2.8,0,0,0,1.07-2.473,3.027,3.027,0,0,0-.529-1.78,2.95,2.95,0,0,0-1.42-1.088,10.758,10.758,0,0,0-3.262-.33h-1.631Z" transform="translate(-522.508 -341.598)" fill="#005490"/>
        </g>
      </g>
    </g>
    <path id="Path_1788" data-name="Path 1788" d="M278.556,413.879l-2.655,2.343q-1.4-1.946-2.847-1.947a1.732,1.732,0,0,0-1.155.379,1.1,1.1,0,0,0-.449.851,1.462,1.462,0,0,0,.321.9,24.287,24.287,0,0,0,2.629,2.42q2.053,1.716,2.489,2.164a7.53,7.53,0,0,1,1.544,2.106,5.264,5.264,0,0,1,.456,2.2,5.038,5.038,0,0,1-1.6,3.828,5.843,5.843,0,0,1-4.179,1.511,6.218,6.218,0,0,1-3.506-.986,7.786,7.786,0,0,1-2.556-3.1l3.013-1.818q1.36,2.5,3.129,2.5a2.3,2.3,0,0,0,1.551-.538,1.6,1.6,0,0,0,.629-1.242,2.142,2.142,0,0,0-.474-1.28A13.737,13.737,0,0,0,272.8,422.2a21.076,21.076,0,0,1-3.976-3.873,4.921,4.921,0,0,1-.9-2.721,4.447,4.447,0,0,1,1.493-3.361,5.179,5.179,0,0,1,3.685-1.4,5.8,5.8,0,0,1,2.685.653,9.782,9.782,0,0,1,2.763,2.381" transform="translate(-10.343 -108.714)" fill="#0081b4"/>
    <path id="Path_1789" data-name="Path 1789" d="M299.454,411.668h10.409V415.2h-3.431v15.3H302.8V415.2h-3.342Z" transform="translate(-24.101 -109.063)" fill="#0081b4"/>
    <path id="Path_1790" data-name="Path 1790" d="M335.555,411.668h3.636l7.244,18.834h-3.726l-1.473-3.879H333.55l-1.532,3.879h-3.726Zm1.84,4.994-2.527,6.465h5.039Z" transform="translate(-36.345 -109.063)" fill="#0081b4"/>
    <path id="Path_1791" data-name="Path 1791" d="M373.839,411.668h9.346v3.495H377.4v3.419h5.787v3.444H377.4V430.5h-3.56Z" transform="translate(-55.682 -109.063)" fill="#0081b4"/>
    <path id="Path_1792" data-name="Path 1792" d="M404.825,411.668h9.346v3.495h-5.787v3.419h5.787v3.444h-5.787V430.5h-3.559Z" transform="translate(-68.837 -109.063)" fill="#0081b4"/>
    <rect id="Rectangle_2396" data-name="Rectangle 2396" width="3.56" height="18.834" transform="translate(353.51 302.605)" fill="#0081b4"/>
    <path id="Path_1793" data-name="Path 1793" d="M457.6,411.668h3.439l8.058,12.393V411.668h3.585V430.5h-3.449l-8.049-12.355V430.5H457.6Z" transform="translate(-91.245 -109.063)" fill="#0081b4"/>
    <path id="Path_1794" data-name="Path 1794" d="M517.166,414.391l-2.525,2.5a7.459,7.459,0,0,0-5.586-2.535A6.382,6.382,0,0,0,504.4,416.2a6.042,6.042,0,0,0-1.877,4.48,6.2,6.2,0,0,0,1.948,4.623,6.631,6.631,0,0,0,4.807,1.895,5.893,5.893,0,0,0,3.133-.781,5.5,5.5,0,0,0,2.057-2.445H509.01V420.6h9.475l.026.793a9.216,9.216,0,0,1-1.281,4.686,8.943,8.943,0,0,1-3.315,3.38,9.455,9.455,0,0,1-4.776,1.165,10.6,10.6,0,0,1-5.23-1.274,9.323,9.323,0,0,1-3.637-3.629,10.129,10.129,0,0,1-1.338-5.083,9.446,9.446,0,0,1,2.472-6.5,9.74,9.74,0,0,1,7.63-3.29,11.612,11.612,0,0,1,4.6.909,10.542,10.542,0,0,1,3.534,2.637" transform="translate(-108.792 -108.714)" fill="#0081b4"/>
    <g id="Group_1416" data-name="Group 1416" transform="translate(280.731 156.664)" style="mix-blend-mode: overlay;isolation: isolate">
      <g id="Group_1415" data-name="Group 1415">
        <g id="Group_1414" data-name="Group 1414" clip-path="url(#clip-path-8)">
          <path id="Path_1795" data-name="Path 1795" d="M331.291,237.581c.571-7.422,2.938-14.251,5.548-21.105a90.532,90.532,0,0,1-9.192-1.573c-4.288-1.174-8.51-2.634-12.665-4.223a12.219,12.219,0,0,1-3.943-2.846c-3.208-3.168-2.929-7.392.579-10.245a20.182,20.182,0,0,1,8.153-3.606,58.717,58.717,0,0,1,16.4-1.471c.192.007.382.09.594.433-1.332.238-2.665.469-3.995.714a39.632,39.632,0,0,0-4.008.783c-3.807,1.119-7.624,2.228-11.358,3.564a11.969,11.969,0,0,0-3.793,2.482,2.781,2.781,0,0,0,.011,4.544,14.515,14.515,0,0,0,3.65,2.42c6.479,2.935,13.422,4.065,20.406,4.944.42.053,1.161-.626,1.388-1.128A173.725,173.725,0,0,1,351.5,188.473c5.455-8.451,11.425-16.5,18.859-23.349,1.877-1.727,4-3.194,6.038-4.736a11.86,11.86,0,0,1,1.988-1.128c6.157-3,10.634-.26,10.159,6.55a41.157,41.157,0,0,1-2.33,10.3c-1.248,3.641-3.071,7.086-4.659,10.61a1.992,1.992,0,0,1-.921.976c.268-.739.576-1.467.8-2.22,1.569-5.374,3.228-10.725,4.612-16.145a14.61,14.61,0,0,0,.079-5.36c-.365-2.819-2.218-3.9-4.82-2.759a22.519,22.519,0,0,0-5.121,3.143c-6.1,4.972-10.863,11.157-15.4,17.514a199.365,199.365,0,0,0-17.239,29.452c-.233.483-.422.987-.724,1.7a248.029,248.029,0,0,0,29.334.927,8.541,8.541,0,0,1-1.1.411,100.309,100.309,0,0,1-27.773,2.36c-1.577-.081-2.39.226-3,1.817-2.087,5.449-4.166,10.883-5.207,16.66a2.328,2.328,0,0,1-1.126,1.3,20.707,20.707,0,0,1-2.665,1.081" transform="translate(-308.801 -158.054)" fill="#005490"/>
        </g>
      </g>
    </g>
    <g id="Group_1419" data-name="Group 1419" transform="translate(335.683 185.201)" style="mix-blend-mode: overlay;isolation: isolate">
      <g id="Group_1418" data-name="Group 1418">
        <g id="Group_1417" data-name="Group 1417" clip-path="url(#clip-path-9)">
          <path id="Path_1796" data-name="Path 1796" d="M404.591,249.934c3.576,3.729,7.049,7.564,10.773,11.138a24.419,24.419,0,0,0,5.89,4.047c3.162,1.6,5.186.327,5.492-3.213.345-3.984-.637-7.8-1.757-11.565-3.942-13.258-10.282-25.406-17.335-37.219-1.04-1.744-2.118-3.467-3.178-5.2l.383-.279c1.93,2.256,3.959,4.436,5.774,6.782,8.616,11.138,15.359,23.252,18.9,36.984a26.9,26.9,0,0,1,.944,11.319c-1.011,5.922-5.6,8.189-10.886,5.327-4.226-2.289-7.267-5.89-10-9.722-1.9-2.672-3.54-5.532-5.3-8.308l.295-.092" transform="translate(-404.296 -207.646)" fill="#005490"/>
        </g>
      </g>
    </g>
    <path id="Path_1797" data-name="Path 1797" d="M454.046,218.593a7.214,7.214,0,0,0-1.912,1.25c-1.241,1.677-2.594,1.216-4.229.675-7.75-2.565-15.8-3.568-23.88-4.381-.521-.052-1.04-.115-1.721-.19,5.557-2.306,23.228-1.91,31.743,2.646" transform="translate(-76.258 -25.383)" fill="#0081b4"/>
    <path id="Path_1798" data-name="Path 1798" d="M346.6,174.219a9.438,9.438,0,0,0,2.247,1.188c1.885.316,2.34,1.508,2.672,3.211,1.494,7.682,4.521,14.85,7.656,21.973a4.548,4.548,0,0,1,.461,1.664c-6.863-8.076-11.543-17.157-13.036-28.036" transform="translate(-44.118 -8.253)" fill="#0081b4"/>
    <path id="Path_1799" data-name="Path 1799" d="M347.715,159.771a4.922,4.922,0,0,1,4.934-4.991,4.971,4.971,0,1,1-4.934,4.991" transform="translate(-44.591 0)" fill="#0081b4"/>
    <g id="Group_1422" data-name="Group 1422" transform="translate(303.118 238.103)" style="mix-blend-mode: overlay;isolation: isolate">
      <g id="Group_1421" data-name="Group 1421">
        <g id="Group_1420" data-name="Group 1420" clip-path="url(#clip-path-10)">
          <path id="Path_1800" data-name="Path 1800" d="M352.7,309.426a4.925,4.925,0,1,1,4.884-5.037,4.926,4.926,0,0,1-4.884,5.037" transform="translate(-347.705 -299.577)" fill="#005490"/>
        </g>
      </g>
    </g>
    <path id="Path_1801" data-name="Path 1801" d="M483.925,231.417a4.929,4.929,0,1,1-4.9-5.047,4.969,4.969,0,0,1,4.9,5.047" transform="translate(-98.235 -30.394)" fill="#0081b4"/>
    <g id="Group_1425" data-name="Group 1425" transform="translate(316.105 217.993)" style="mix-blend-mode: overlay;isolation: isolate">
      <g id="Group_1424" data-name="Group 1424">
        <g id="Group_1423" data-name="Group 1423" clip-path="url(#clip-path-11)">
          <path id="Path_1802" data-name="Path 1802" d="M389.862,264.856c-5.14,9.372-10.8,18.352-19.191,25.435-.82-2.086-.358-3.343,1.265-4.731,6.5-5.556,11.577-12.375,16.464-19.333q.558-.8,1.114-1.6l.348.225" transform="translate(-370.273 -264.63)" fill="#005490"/>
        </g>
      </g>
    </g>
    <path id="Path_1803" data-name="Path 1803" d="M441.672,249.479c3.266-.691,6.55-1.308,9.792-2.1,2.21-.538,4.378-1.267,6.528-2.015.832-.29,1.419-.444,2.161.271a15.641,15.641,0,0,0,2.613,1.664c-6.9,2.829-13.913,3.2-21.094,2.179" transform="translate(-84.481 -38.356)" fill="#0081b4"/>
    <path id="Path_1804" data-name="Path 1804" d="M370.394,160.387c5.745,4.539,9.574,10.3,12.434,16.768l-.321.264c-.787-.922-1.523-1.893-2.368-2.756-3.077-3.139-6.208-6.225-9.269-9.38a2.693,2.693,0,0,1-.631-1.616,30.781,30.781,0,0,1,.156-3.279" transform="translate(-54.148 -2.38)" fill="#0081b4"/>
    <path id="Path_1805" data-name="Path 1805" d="M391.411,221.033l2.059,6.337h6.664l-5.391,3.917,2.059,6.337-5.391-3.916-5.391,3.916,2.06-6.337-5.391-3.917h6.664Z" transform="translate(-59.439 -28.128)" fill="#0081b4"/>
  </g>
</svg>
