<svg xmlns="http://www.w3.org/2000/svg" xmlns:xlink="http://www.w3.org/1999/xlink" width="839.039" height="744.806" viewBox="0 0 839.039 744.806">
  <defs>
    <clipPath id="clip-path">
      <rect id="Rectangle_2397" data-name="Rectangle 2397" width="637.763" height="635.735" fill="none"/>
    </clipPath>
    <clipPath id="clip-path-2">
      <rect id="Rectangle_2398" data-name="Rectangle 2398" width="211.399" height="492.765" fill="none"/>
    </clipPath>
    <clipPath id="clip-path-3">
      <rect id="Rectangle_2399" data-name="Rectangle 2399" width="78.946" height="78.734" fill="none"/>
    </clipPath>
    <clipPath id="clip-path-4">
      <rect id="Rectangle_2400" data-name="Rectangle 2400" width="156.59" height="205.125" fill="none"/>
    </clipPath>
  </defs>
  <g id="Group_1429" data-name="Group 1429" transform="translate(-280.731 -154.78)" style="isolation: isolate">
    <g id="Group_1416" data-name="Group 1416" transform="translate(280.731 169.841)" style="mix-blend-mode: overlay;isolation: isolate">
      <g id="Group_1415" data-name="Group 1415">
        <g id="Group_1414" data-name="Group 1414" clip-path="url(#clip-path)">
          <path id="Path_1795" data-name="Path 1795" d="M488.593,793.786c4.563-59.327,23.488-113.925,44.349-168.711-25.033-4.113-49.869-6.1-73.481-12.572-34.275-9.389-68.03-21.054-101.242-33.755-11.739-4.485-22.356-13.7-31.519-22.752-25.64-25.328-23.414-59.087,4.628-81.894,19.039-15.484,41.74-23.019,65.173-28.828,43.1-10.672,86.877-13.4,131.06-11.758,1.536.06,3.05.722,4.747,3.459-10.649,1.9-21.3,3.749-31.934,5.709-10.709,1.978-21.647,3.2-32.039,6.261-30.434,8.947-60.946,17.807-90.791,28.488-11.1,3.974-21.427,11.794-30.319,19.84-12.549,11.353-12.448,25.038.087,36.322a116.025,116.025,0,0,0,29.178,19.348c51.792,23.465,107.3,32.495,163.126,39.519,3.358.423,9.283-5,11.1-9.021a1388.75,1388.75,0,0,1,99.458-182.212C693.777,333.672,741.5,269.3,800.926,214.582c15-13.809,31.952-25.53,48.268-37.863,4.817-3.643,10.415-6.357,15.889-9.021,49.22-23.962,85-2.079,81.209,52.362-1.941,27.8-9.541,55.808-18.626,82.332-9.973,29.109-24.55,56.645-37.242,84.816a15.92,15.92,0,0,1-7.36,7.8c2.139-5.911,4.6-11.726,6.362-17.747,12.54-42.955,25.8-85.731,36.865-129.063,3.45-13.506,2.457-28.759.63-42.845C924,182.823,909.188,174.18,888.392,183.3a180.013,180.013,0,0,0-40.94,25.125c-48.76,39.749-86.835,89.186-123.083,140.007C671.362,422.743,626.12,501.666,586.56,583.873c-1.859,3.864-3.377,7.894-5.787,13.584,78.647,7.572,156.227,9.117,234.491,7.411-2.912,1.113-5.745,2.59-8.758,3.284-73.1,16.854-147.206,22.683-222.012,18.87-12.6-.649-19.1,1.8-23.975,14.527-16.684,43.558-33.3,87-41.626,133.176-.713,3.956-5.17,8.234-9,10.419-6.27,3.579-13.45,5.571-21.3,8.644" transform="translate(-308.805 -158.056)" fill="#005490"/>
        </g>
      </g>
    </g>
    <g id="Group_1419" data-name="Group 1419" transform="translate(720.012 397.966)" style="mix-blend-mode: overlay;isolation: isolate">
      <g id="Group_1418" data-name="Group 1418">
        <g id="Group_1417" data-name="Group 1417" clip-path="url(#clip-path-2)">
          <path id="Path_1796" data-name="Path 1796" d="M406.651,545.7c28.584,29.808,56.351,60.467,86.117,89.038,13.584,13.046,30.186,23.823,47.082,32.347,25.277,12.756,41.456,2.618,43.9-25.682,2.755-31.846-5.093-62.345-14.043-92.447-31.515-105.981-82.194-203.092-138.572-297.522-8.317-13.938-16.928-27.711-25.4-41.557l3.059-2.231c15.424,18.037,31.648,35.462,46.153,54.211C523.823,350.89,577.722,447.73,606.012,557.5c7.631,29.624,12.792,59.778,7.544,90.483-8.082,47.339-44.772,65.463-87.019,42.583-33.782-18.294-58.089-47.086-79.9-77.718-15.2-21.362-28.3-44.225-42.339-66.415.782-.248,1.569-.492,2.355-.736" transform="translate(-404.296 -207.65)" fill="#005490"/>
        </g>
      </g>
    </g>
    <path id="Path_1797" data-name="Path 1797" d="M676.05,246.745c-6.053,3.823-12.171,5.8-15.286,10-9.917,13.4-20.737,9.724-33.81,5.4-61.949-20.5-126.308-28.52-190.892-35.025-4.163-.414-8.317-.916-13.759-1.522,44.423-18.432,185.685-15.272,253.747,21.155" transform="translate(380.542 215.239)" fill="#0081b4"/>
    <path id="Path_1798" data-name="Path 1798" d="M346.6,174.219c8.069,4.407,12.737,8.616,17.958,9.495,15.065,2.53,18.708,12.057,21.358,25.668,11.942,61.406,36.142,118.709,61.2,175.648,1.831,4.172,3.487,8.423,3.685,13.3-54.86-64.562-92.277-137.15-104.2-224.114" transform="translate(108.012 69.981)" fill="#0081b4"/>
    <path id="Path_1799" data-name="Path 1799" d="M347.718,194.676a39.346,39.346,0,0,1,39.445-39.9,39.744,39.744,0,0,1,.446,79.48c-21.781.469-39.606-17.223-39.891-39.583" transform="translate(112.02)" fill="#0081b4"/>
    <g id="Group_1422" data-name="Group 1422" transform="translate(459.691 820.852)" style="mix-blend-mode: overlay;isolation: isolate">
      <g id="Group_1421" data-name="Group 1421">
        <g id="Group_1420" data-name="Group 1420" clip-path="url(#clip-path-3)">
          <path id="Path_1800" data-name="Path 1800" d="M387.6,378.311c-22.366.212-39.814-16.933-39.9-39.206-.083-22.462,17-39.564,39.505-39.528a39.368,39.368,0,0,1,.391,78.734" transform="translate(-347.705 -299.577)" fill="#005490"/>
        </g>
      </g>
    </g>
    <path id="Path_1801" data-name="Path 1801" d="M552.868,266.715a39.234,39.234,0,0,1-40.338,38.948c-22.113-.492-39.045-18.442-38.447-40.752.575-21.473,18.345-38.765,39.606-38.539a39.725,39.725,0,0,1,39.178,40.342" transform="translate(566.897 257.729)" fill="#0081b4"/>
    <g id="Group_1425" data-name="Group 1425" transform="translate(563.505 660.094)" style="mix-blend-mode: overlay;isolation: isolate">
      <g id="Group_1424" data-name="Group 1424">
        <g id="Group_1423" data-name="Group 1423" clip-path="url(#clip-path-4)">
          <path id="Path_1802" data-name="Path 1802" d="M526.862,266.429c-41.088,74.921-86.333,146.7-153.412,203.321-6.555-16.675-2.865-26.726,10.111-37.816,51.967-44.413,92.548-98.924,131.612-154.548q4.464-6.368,8.906-12.756c.924.6,1.854,1.2,2.783,1.8" transform="translate(-370.272 -264.626)" fill="#005490"/>
        </g>
      </g>
    </g>
    <path id="Path_1803" data-name="Path 1803" d="M441.672,279.943c26.11-5.52,52.363-10.456,78.28-16.772,17.664-4.3,35-10.125,52.182-16.109,6.652-2.319,11.344-3.547,17.273,2.167,5.451,5.258,12.949,8.395,20.884,13.3-55.122,22.618-111.215,25.558-168.619,17.415" transform="translate(450.271 325.24)" fill="#0081b4"/>
    <path id="Path_1804" data-name="Path 1804" d="M371.576,160.387c45.927,36.285,76.531,82.308,99.393,134.041l-2.567,2.111c-6.288-7.369-12.171-15.134-18.933-22.034-24.6-25.093-49.63-49.763-74.1-74.985-3.008-3.1-4.793-8.478-5.041-12.917-.451-8.083.676-16.247,1.246-26.216" transform="translate(193.06 20.186)" fill="#0081b4"/>
    <path id="Path_1805" data-name="Path 1805" d="M452.42,221.033l16.459,50.66h53.269l-43.093,31.313,16.459,50.66L452.42,322.358l-43.1,31.308,16.464-50.66-43.1-31.313h53.268Z" transform="translate(237.927 238.512)" fill="#0081b4"/>
  </g>
</svg>
